<?xml version="1.0" encoding="UTF-8"?>
<svg height="16px" viewBox="0 0 16 16" width="16px" xmlns="http://www.w3.org/2000/svg">
    <g fill="#241f31">
        <path d="m 8 12 c 0 2.210938 -1.789062 4 -4 4 s -4 -1.789062 -4 -4 s 1.789062 -4 4 -4 s 4 1.789062 4 4 z m 0 0"/>
        <path d="m 16 4 c 0 2.210938 -1.789062 4 -4 4 s -4 -1.789062 -4 -4 s 1.789062 -4 4 -4 s 4 1.789062 4 4 z m 0 0"/>
        <path d="m 12 8 c -2.210938 0 -4 1.789062 -4 4 s 1.789062 4 4 4 s 4 -1.789062 4 -4 s -1.789062 -4 -4 -4 z m 0 2.109375 c 1.042969 0 1.890625 0.847656 1.890625 1.890625 s -0.847656 1.890625 -1.890625 1.890625 s -1.890625 -0.847656 -1.890625 -1.890625 s 0.847656 -1.890625 1.890625 -1.890625 z m 0 0"/>
    </g>
</svg>
